<svg width="18" height="20" viewBox="0 0 18 20" fill="none" xmlns="http://www.w3.org/2000/svg" id="note">
    <path d="M16.6255 2.34016L8.81305 0.0324639C8.69641 -0.0019976 8.5732 -0.00915115 8.45328 0.0116181C8.33328 0.0323873 8.21992 0.0804643 8.12219 0.15208C8.02453 0.223695 7.94516 0.316771 7.89047 0.423925C7.83578 0.531079 7.80734 0.64931 7.80734 0.769233V5.36731C7.80703 5.37908 7.80703 5.39077 7.80734 5.40254V11.179C7.00758 10.475 5.98664 10.0626 4.91523 10.0107C3.84375 9.95877 2.78664 10.2705 1.92055 10.8937C1.05445 11.5169 0.431796 12.4139 0.156718 13.4349C-0.118439 14.4558 -0.0293755 15.5388 0.408984 16.5028C0.847265 17.4669 1.60836 18.2535 2.565 18.7315C3.52164 19.2095 4.61594 19.3497 5.66492 19.1287C6.71398 18.9078 7.65414 18.339 8.32852 17.5175C9.00281 16.6961 9.37039 15.6716 9.36984 14.6154V6.41846L16.1766 8.42908C16.2932 8.46354 16.4165 8.47069 16.5364 8.44993C16.6563 8.42916 16.7697 8.38108 16.8674 8.30946C16.9652 8.23785 17.0445 8.14477 17.0992 8.03762C17.1538 7.93046 17.1823 7.81223 17.1823 7.69231V3.07693C17.1823 2.91146 17.1282 2.75046 17.0279 2.61777C16.9276 2.485 16.7865 2.3877 16.6255 2.34016Z"
          fill="#0033B6"/>
</svg>
